<?xml version="1.0" encoding="utf-8"?>
<!-- Generator: Adobe Illustrator 26.4.1, SVG Export Plug-In . SVG Version: 6.00 Build 0)  -->
<svg version="1.1" id="Lager_1" xmlns="http://www.w3.org/2000/svg" xmlns:xlink="http://www.w3.org/1999/xlink" x="0px" y="0px"
	 viewBox="0 0 137.2 137.2" style="enable-background:new 0 0 137.2 137.2;" xml:space="preserve">
<style type="text/css">
	.st0{fill:#FFFFFF;}
</style>
<g>
	<g>
		<path class="st0" d="M68.6,137.2l-6.7-6.3c-1.9-1.8-3.9-3.6-5.8-5.4c-16-14.8-32.5-30.1-39.6-46.9c-3-7-4.4-14.4-4.4-22
			C12,25.4,37.4,0,68.6,0s56.6,25.4,56.6,56.6c0,7.6-1.5,15-4.4,22c-7.1,16.7-23.6,32.1-39.6,46.9c-2,1.8-3.9,3.6-5.8,5.4
			L68.6,137.2z M68.6,19.6c-20.4,0-36.9,16.6-36.9,36.9c0,5,1,9.8,2.9,14.4c5.3,12.6,20.4,26.8,34,39.4c13.6-12.6,28.7-26.8,34-39.4
			c1.9-4.5,2.9-9.4,2.9-14.4C105.5,36.2,88.9,19.6,68.6,19.6z"/>
	</g>
	<g>
		<circle class="st0" cx="68.6" cy="55.8" r="12.8"/>
	</g>
</g>
</svg>
