<?xml version="1.0" encoding="UTF-8"?>
<svg id="Lager_1" data-name="Lager 1" xmlns="http://www.w3.org/2000/svg" viewBox="0 0 113.13 137.18">
  <defs>
    <style>
      .cls-1 {
        fill: #2e22af;
      }
    </style>
  </defs>
  <path class="cls-1" d="M56.57,137.18l-6.72-6.31c-1.9-1.79-3.86-3.6-5.83-5.43-15.97-14.81-32.48-30.11-39.56-46.86-2.95-6.98-4.45-14.39-4.45-22.02C0,25.38,25.37,0,56.57,0s56.57,25.38,56.57,56.57c0,7.63-1.5,15.04-4.45,22.02-7.08,16.75-23.6,32.06-39.58,46.87-1.97,1.83-3.92,3.63-5.82,5.41l-6.72,6.31Zm0-117.53c-20.35,0-36.92,16.56-36.92,36.92,0,4.99,.97,9.82,2.9,14.37,5.33,12.6,20.45,26.77,34.02,39.35,13.58-12.59,28.69-26.75,34.02-39.35,1.92-4.55,2.9-9.38,2.9-14.37,0-20.36-16.56-36.92-36.92-36.92Z"/>
  <circle class="cls-1" cx="56.57" cy="55.77" r="12.83"/>
</svg>