<?xml version="1.0" encoding="utf-8"?>
<!-- Generator: Adobe Illustrator 26.4.1, SVG Export Plug-In . SVG Version: 6.00 Build 0)  -->
<svg version="1.1" id="Lager_1" xmlns="http://www.w3.org/2000/svg" xmlns:xlink="http://www.w3.org/1999/xlink" x="0px" y="0px"
	 viewBox="0 0 336.7 62.3" style="enable-background:new 0 0 336.7 62.3;" xml:space="preserve">
<style type="text/css">
	.st0{fill:#FFFFFF;}
</style>
<g>
	<path class="st0" d="M5.4,60.1c-2.5-0.9-4.3-1.9-5.4-3l3.4-6c0.9,0.8,2.3,1.6,4.2,2.5c1.9,0.9,3.7,1.3,5.4,1.3
		c2.2,0,4.1-0.5,5.5-1.6c1.4-1.1,2.1-2.5,2.1-4.4c0-1.4-0.4-2.7-1.1-3.7c-0.8-1.1-1.7-1.9-2.8-2.6C15.6,41.9,14,41,12,40
		c-2.4-1.2-4.1-2.1-5-2.7c-4.1-2.8-6.2-6.6-6.2-11.4c0-4,1.3-7.1,4-9.2s6-3.2,10.1-3.2c4.4,0,8.1,1.2,11.1,3.7L22.6,23
		c-0.8-0.8-1.9-1.6-3.4-2.2s-3-0.9-4.7-0.9c-2.1,0-3.8,0.5-5,1.4c-1.2,1-1.8,2.4-1.8,4.2c0,1.3,0.4,2.5,1.1,3.5
		c0.8,1,1.7,1.9,2.9,2.7c1.2,0.8,2.7,1.7,4.7,2.8c1.9,1.1,3.4,1.9,4.4,2.5s2,1.3,2.9,2.2c1.2,1.1,2.2,2.4,3,3.9s1.1,3.2,1.1,5
		c0,2.8-0.6,5.2-1.9,7.2c-1.3,2-3.1,3.5-5.3,4.5c-2.3,1-4.8,1.5-7.7,1.5C10.4,61.4,7.9,61,5.4,60.1z"/>
	<path class="st0" d="M37.7,37.2h-5.1v-5.6h5.1V19.8l6.9-1.5v13.4h6.7v5.6h-6.7v23.5h-6.9V37.2z"/>
	<path class="st0" d="M56.7,31.6h6.9v5.7c0.7-1.9,1.8-3.5,3.3-4.7s3.3-1.8,5.2-1.8c1.4,0,2.3,0.1,2.8,0.4l-1,6.9
		c-0.4-0.3-1.2-0.4-2.5-0.4c-2,0-3.8,0.6-5.4,1.9c-1.6,1.4-2.5,3.4-2.5,6.2v15h-6.9V31.6H56.7z"/>
	<path class="st0" d="M84.7,59.3c-2.3-1.4-4-3.2-5.1-5.5C78.5,51.5,78,49,78,46.2c0-3.1,0.6-5.8,1.9-8.1s3.1-4.1,5.4-5.4
		c2.3-1.2,4.9-1.9,7.7-1.9c4.5,0,7.8,1.2,10,3.7s3.3,6,3.3,10.4c0,1.1-0.1,2.3-0.2,3.6h-21c0.5,2.6,1.4,4.4,2.8,5.6
		c1.4,1.1,3.3,1.7,5.7,1.7c2,0,3.7-0.2,5-0.5s2.5-0.8,3.6-1.4l2.1,4.9c-1.1,0.7-2.5,1.3-4.3,1.8s-4,0.8-6.6,0.8
		C90,61.4,87.1,60.7,84.7,59.3z M99.6,43.8c0-2.6-0.5-4.5-1.7-5.6s-2.9-1.6-5.1-1.6c-4.4,0-7,2.4-7.7,7.2
		C85.1,43.8,99.6,43.8,99.6,43.8z"/>
	<path class="st0" d="M118.5,59.3c-2.3-1.4-4-3.2-5.1-5.5c-1.1-2.3-1.7-4.8-1.7-7.6c0-3.1,0.6-5.8,1.9-8.1c1.3-2.3,3.1-4.1,5.4-5.4
		c2.3-1.2,4.9-1.9,7.7-1.9c4.5,0,7.8,1.2,10,3.7s3.3,6,3.3,10.4c0,1.1-0.1,2.3-0.2,3.6h-20.9c0.5,2.6,1.4,4.4,2.8,5.6
		c1.4,1.1,3.3,1.7,5.7,1.7c2,0,3.7-0.2,5-0.5s2.5-0.8,3.6-1.4l2.1,4.9c-1.1,0.7-2.5,1.3-4.3,1.8s-4,0.8-6.6,0.8
		C123.7,61.4,120.8,60.7,118.5,59.3z M133.4,43.8c0-2.6-0.5-4.5-1.7-5.6s-2.9-1.6-5.1-1.6c-4.4,0-7,2.4-7.7,7.2
		C118.9,43.8,133.4,43.8,133.4,43.8z"/>
	<path class="st0" d="M172.6,60.1c-2.5-0.9-4.3-1.9-5.4-3l3.4-6c0.9,0.8,2.3,1.6,4.2,2.5s3.7,1.3,5.4,1.3c2.2,0,4.1-0.5,5.5-1.6
		s2.1-2.5,2.1-4.4c0-1.4-0.4-2.7-1.1-3.7c-0.8-1.1-1.7-1.9-2.8-2.6c-1.1-0.7-2.7-1.6-4.7-2.6c-2.4-1.2-4.1-2.1-5-2.7
		c-4.1-2.8-6.2-6.6-6.2-11.4c0-4,1.3-7.1,4-9.2s6-3.2,10.1-3.2c4.4,0,8.1,1.2,11.1,3.7l-3.4,5.8c-0.8-0.8-1.9-1.6-3.4-2.2
		s-3-0.9-4.7-0.9c-2.1,0-3.8,0.5-5,1.4c-1.2,1-1.8,2.4-1.8,4.2c0,1.3,0.4,2.5,1.1,3.5c0.8,1,1.7,1.9,2.9,2.7s2.7,1.7,4.7,2.8
		c1.9,1.1,3.4,1.9,4.4,2.5s2,1.3,2.9,2.2c1.2,1.1,2.2,2.4,3,3.9s1.1,3.2,1.1,5c0,2.8-0.6,5.2-1.9,7.2c-1.3,2-3.1,3.5-5.3,4.5
		c-2.3,1-4.8,1.5-7.7,1.5C177.6,61.4,175.1,61,172.6,60.1z"/>
	<path class="st0" d="M202.3,31.6h6.9v5.3c0.9-2,2.3-3.5,4.1-4.5s3.9-1.5,6.2-1.5c5.2,0,8.4,1.8,9.6,5.4c0.9-1.7,2.3-3,4.2-3.9
		c1.9-1,3.8-1.5,5.9-1.5c3,0,5.4,0.6,6.9,1.7c1.6,1.2,2.6,2.8,3.1,5c0.5,2.1,0.8,5,0.8,8.6v14.6h-6.9V46.1c0-3.4-0.3-5.9-1-7.4
		c-0.7-1.5-2-2.2-4-2.2c-2.7,0-4.7,0.9-6.1,2.7c-1.4,1.8-2.1,4.2-2.1,7.1v14.5H223V45.1c0-2.2-0.1-3.9-0.3-5s-0.6-2-1.4-2.6
		c-0.8-0.6-2-1-3.7-1c-1.5,0-2.9,0.4-4.2,1.3c-1.3,0.9-2.3,2.1-3.1,3.6s-1.2,3.1-1.2,4.9v14.5h-6.9V31.6H202.3z"/>
	<path class="st0" d="M264.3,59.5c-2.2-1.2-4-3-5.3-5.3c-1.3-2.3-2-5-2-8.1c0-3,0.6-5.7,1.7-8c1.2-2.3,2.8-4.1,5-5.3
		s4.7-1.9,7.6-1.9c1.7,0,3.3,0.3,4.8,0.9c1.5,0.6,2.7,1.3,3.7,2.2s1.7,1.7,2,2.6l0.1-4.9h6.5v29.1h-6.5l-0.1-5.1
		c-0.7,1.5-2,2.9-3.9,4c-1.9,1.2-4,1.7-6.4,1.7C269,61.4,266.5,60.8,264.3,59.5z M278.8,53.2c1.7-1.7,2.5-3.9,2.5-6.6v-0.4
		c0-1.8-0.4-3.4-1.1-4.9c-0.8-1.4-1.8-2.6-3.1-3.4c-1.3-0.8-2.8-1.2-4.3-1.2c-2.7,0-4.8,0.9-6.3,2.6c-1.5,1.8-2.2,4-2.2,6.8
		s0.7,5.1,2.2,6.9c1.5,1.8,3.6,2.6,6.3,2.6C275.1,55.7,277.2,54.9,278.8,53.2z"/>
	<path class="st0" d="M297.6,31.6h6.9v5.7c0.7-1.9,1.8-3.5,3.3-4.7s3.3-1.8,5.2-1.8c1.4,0,2.3,0.1,2.8,0.4l-1,6.9
		c-0.4-0.3-1.2-0.4-2.5-0.4c-2,0-3.8,0.6-5.4,1.9c-1.6,1.3-2.4,3.3-2.4,6.1v15h-6.9V31.6z"/>
	<path class="st0" d="M323.1,37.2H318v-5.6h5.1V19.8l6.9-1.5v13.4h6.7v5.6H330v23.5h-6.9V37.2z"/>
	<polygon class="st0" points="156.7,26.5 149.7,26.5 149.7,31.6 144.6,31.6 144.6,37.2 149.7,37.2 149.7,60.8 156.7,60.8 
		156.7,37.2 163.4,37.2 163.4,31.6 156.7,31.6 	"/>
	<g>
		<g>
			<path class="st0" d="M153.2,23.2l-1.1-1c-0.3-0.3-0.6-0.6-0.9-0.9c-2.6-2.4-5.2-4.9-6.4-7.6c-0.5-1.1-0.7-2.3-0.7-3.6
				c0-5,4.1-9.1,9.1-9.1s9.1,4.1,9.1,9.1c0,1.2-0.2,2.4-0.7,3.6c-1.1,2.7-3.8,5.2-6.4,7.6c-0.3,0.3-0.6,0.6-0.9,0.9L153.2,23.2z
				 M153.2,4.2c-3.3,0-6,2.7-6,6c0,0.8,0.2,1.6,0.5,2.3c0.9,2,3.3,4.3,5.5,6.4c2.2-2,4.6-4.3,5.5-6.4c0.3-0.7,0.5-1.5,0.5-2.3
				C159.1,6.9,156.5,4.2,153.2,4.2z"/>
		</g>
		<g>
			<circle class="st0" cx="153.2" cy="10" r="2.1"/>
		</g>
	</g>
</g>
</svg>
